<svg width="24" height="24" viewBox="0 0 24 24" fill="none" xmlns="http://www.w3.org/2000/svg">
<path fill-rule="evenodd" clip-rule="evenodd" d="M5.52077 14.697L4.40785 15.0717C3.95389 15.2245 3.95389 15.8666 4.40785 16.0194L11.8408 18.5218C11.9443 18.5567 12.0563 18.5567 12.1598 18.5218L19.5928 16.0194C20.0467 15.8666 20.0467 15.2245 19.5928 15.0717L18.4798 14.697L12.1598 16.8247C12.0563 16.8596 11.9443 16.8596 11.8408 16.8247L5.52077 14.697Z" fill="currentColor"/>
<path d="M11.8405 9.02375C11.944 8.98891 12.056 8.98891 12.1595 9.02375L19.5925 11.5261C20.0464 11.679 20.0464 12.321 19.5925 12.4739L12.1595 14.9762C12.056 15.0111 11.944 15.0111 11.8405 14.9762L4.40755 12.4739C3.95359 12.321 3.95359 11.679 4.40754 11.5261L11.8405 9.02375Z" fill="currentColor"/>
<path fill-rule="evenodd" clip-rule="evenodd" d="M17.6663 3.98169H16.3329V5.31491H15L15 6.64824H16.3329V7.98169H17.6663V6.64825H19V5.31491H17.6663V3.98169Z" fill="currentColor"/>
</svg>
