<svg viewBox="0 0 24 24" fill="none" xmlns="http://www.w3.org/2000/svg"><path fill-rule="evenodd" clip-rule="evenodd" d="M8.135 16.904c.277.277.692.23.969 0l4.615-4.615c.323-.324.877-.37 1.293 0 .415.369.369 1.015 0 1.384l-5.677 5.585c-1.247 1.246-3.323 1.246-4.57 0l-.046-.046c-1.246-1.247-1.246-3.324 0-4.57L14.735 4.627c1.246-1.246 3.323-1.246 4.569 0l.046.046c1.246 1.246 1.246 3.323 0 4.57l-.046.045c-.23.231-.277.554-.092.831.276.508.507 1.062.646 1.616.092.369.507.461.784.23.37-.369.693-.738.693-.738a6.045 6.045 0 0 0 0-8.539h-.093a6.045 6.045 0 0 0-8.538 0l-10.016 9.97a6.045 6.045 0 0 0 0 8.538l.093.092a5.99 5.99 0 0 0 8.492 0l5.723-5.677c1.477-1.476 1.43-3.876-.092-5.353-1.477-1.431-3.877-1.339-5.308.138L7.073 14.92a.724.724 0 0 0 0 1.016l1.062.969Z" fill="currentColor"/></svg>