<svg width="24" height="24" viewBox="0 0 24 24" fill="none"
    xmlns="http://www.w3.org/2000/svg">
    <path fill="currentColor" d="M13.6892 0.937146L1.2831 3.29099C1.07367 3.3308 0.923096 3.52118 0.923096 3.73407V20.2664C0.923096 20.4793 1.07367 20.6696 1.2831 20.7095L13.6892 23.0633C13.7169 23.0685 13.7446 23.0771 13.7723 23.0771C13.8744 23.0771 13.9696 23.046 14.0492 22.9802C14.1514 22.8954 14.2154 22.7656 14.2154 22.6341V1.36638C14.2154 1.23484 14.1514 1.10503 14.0492 1.02022C13.9471 0.935416 13.8191 0.912916 13.6892 0.937146ZM15.1016 3.58176V6.6833H15.9877V7.56945H15.1016V9.78484H15.9877V10.671H15.1016V12.8864H15.9877V13.7725H15.1016V16.431H15.9877V17.3171H15.1016V20.4187H21.7477C22.2358 20.4187 22.6339 20.0206 22.6339 19.5325V4.46792C22.6339 3.97984 22.2358 3.58176 21.7477 3.58176H15.1016ZM16.8739 6.6833H20.4185V7.56945H16.8739V6.6833ZM3.88617 7.87407H6.15694L7.34771 10.3525C7.44117 10.5481 7.52425 10.7887 7.59694 11.0587H7.61079C7.65752 10.8977 7.74752 10.645 7.87387 10.3248L9.18925 7.87407H11.2662L8.78771 11.9725L11.3354 16.1541H9.13387L7.69387 13.4541C7.64021 13.3537 7.58483 13.1685 7.52771 12.9002H7.51386C7.48617 13.0266 7.4204 13.2239 7.32002 13.4818L5.88002 16.1541H3.66463L6.30925 12.0141L3.88617 7.87407ZM16.8739 9.78484H20.4185V10.671H16.8739V9.78484ZM16.8739 12.8864H20.4185V13.7725H16.8739V12.8864ZM16.8739 16.431H20.4185V17.3171H16.8739V16.431Z" />
</svg>
