<svg xmlns="http://www.w3.org/2000/svg" fill="none" viewBox="0 0 24 24"><path fill="currentColor" d="M8.5 7h12c.55 0 1-.45 1-1s-.45-1-1-1h-12c-.55 0-1 .45-1 1s.45 1 1 1Zm12 10h-12c-.55 0-1 .45-1 1s.45 1 1 1h12c.55 0 1-.45 1-1s-.45-1-1-1Zm0-6h-12c-.55 0-1 .45-1 1s.45 1 1 1h12c.55 0 1-.45 1-1s-.45-1-1-1ZM5 16H3c-.28 0-.5.22-.5.5s.22.5.5.5h1.5v.5H4c-.28 0-.5.22-.5.5s.22.5.5.5h.5v.5H3c-.28 0-.5.22-.5.5s.22.5.5.5h2c.28 0 .5-.22.5-.5v-3c0-.28-.22-.5-.5-.5ZM3 5h.5v2.5c0 .28.22.5.5.5s.5-.22.5-.5v-3c0-.28-.22-.5-.5-.5H3c-.28 0-.5.22-.5.5s.22.5.5.5Zm2 5H3c-.28 0-.5.22-.5.5s.22.5.5.5h1.3l-1.68 1.96a.49.49 0 0 0-.12.32v.22c0 .28.22.5.5.5h2c.28 0 .5-.22.5-.5S5.28 13 5 13H3.7l1.68-1.96a.49.49 0 0 0 .12-.32v-.22c0-.28-.22-.5-.5-.5Z"/></svg>
