<svg xmlns="http://www.w3.org/2000/svg" fill="none" viewBox="0 0 16 16">
    <path fill="currentColor" d="M12.655 9.361H8.8l1.3-2.532h2.56c.569 0 1.027-.459 1.027-1.027 0-.569-.458-1.027-1.027-1.027h-1.505l.655-1.28a1.023 1.023 0 0 0-.445-1.381 1.023 1.023 0 0 0-1.38.444L8.848 4.775h-4.82C3.457 4.775 3 5.233 3 5.802c0 .568.459 1.027 1.027 1.027h3.76l-1.3 2.532h-2.46C3.46 9.361 3 9.82 3 10.388c0 .569.459 1.027 1.027 1.027h1.405l-.56 1.09a1.023 1.023 0 0 0 .445 1.38 1.026 1.026 0 0 0 1.38-.444l1.042-2.026h4.912c.568 0 1.027-.458 1.027-1.027 0-.568-.454-1.027-1.023-1.027Z"/>
</svg>