<svg width="24" height="24" viewBox="0 0 24 24" fill="none" xmlns="http://www.w3.org/2000/svg">
<g clip-path="url(#clip0_836_5688)">
<path fill-rule="evenodd" clip-rule="evenodd" d="M6.24275 14.454L4.40785 15.0717C3.95389 15.2246 3.95389 15.8666 4.40785 16.0195L11.8408 18.5218C11.9443 18.5567 12.0563 18.5567 12.1598 18.5218L19.5928 16.0195C20.0467 15.8666 20.0467 15.2246 19.5928 15.0717L18.0875 14.565L12.4369 16.4673C12.3334 16.5022 12.2213 16.5022 12.1178 16.4673L6.40746 14.5449C6.34356 14.5234 6.28866 14.4921 6.24275 14.454Z" fill="currentColor"/>
<path fill-rule="evenodd" clip-rule="evenodd" d="M6.57192 11.7482L4.99988 12.2774L12.2773 14.7274L19.5547 12.2774L17.705 11.6547L12.1591 13.5217C12.0556 13.5566 11.9435 13.5566 11.84 13.5217L6.57192 11.7482Z" fill="currentColor"/>
<path d="M11.8403 5.56928C11.9438 5.53444 12.0559 5.53444 12.1594 5.56928L19.5923 8.07167C20.0463 8.22449 20.0463 8.86657 19.5923 9.0194L12.1594 11.5218C12.0559 11.5566 11.9438 11.5566 11.8403 11.5218L4.40742 9.0194C3.95347 8.86657 3.95347 8.2245 4.40742 8.07167L11.8403 5.56928Z" fill="currentColor"/>
</g>
<defs>
<clipPath id="clip0_836_5688">
<rect width="24" height="24" fill="currentColor"/>
</clipPath>
</defs>
</svg>
