<svg xmlns="http://www.w3.org/2000/svg" fill="none" viewBox="0 0 24 24">
    <path fill="currentColor" d="M17.5 12.5c-.55 0-1 .45-1 1v5.22c0 .55-.45 1-1 1h-10c-.55 0-1-.45-1-1V8.5c0-.55.45-1 1-1h5c.55 0 1-.45 1-1s-.45-1-1-1h-6c-1.1 0-2 .9-2 2v12c0 1.1.9 2 2 2h12c1.1 0 2-.9 2-2v-6c0-.55-.45-1-1-1Zm3.02-7H18.5V3.48c0-.54-.44-.98-.98-.98h-.03c-.55 0-.99.44-.99.98V5.5h-2.01c-.54 0-.98.44-.99.98v.03c0 .55.44.99.99.99h2.01v2.01c0 .54.44.99.99.98h.03c.54 0 .98-.44.98-.98V7.5h2.02c.54 0 .98-.44.98-.98v-.04c0-.54-.44-.98-.98-.98Z"/>
    <path fill="currentColor" d="M13.5 9.5h-6c-.55 0-1 .45-1 1s.45 1 1 1h6c.55 0 1-.45 1-1s-.45-1-1-1Zm0 3h-6c-.55 0-1 .45-1 1s.45 1 1 1h6c.55 0 1-.45 1-1s-.45-1-1-1Zm0 3h-6c-.55 0-1 .45-1 1s.45 1 1 1h6c.55 0 1-.45 1-1s-.45-1-1-1Z"/>
</svg>