<svg xmlns="http://www.w3.org/2000/svg" fill="none" viewBox="0 0 24 24"><path fill="currentColor" fill-rule="evenodd" d="M2 3a1 1 0 0 0-1 1v16a1 1 0 0 0 1 1h20a1 1 0 0 0 1-1V4a1 1 0 0 0-1-1H2Zm17.5 8H21v-1c0-.55-.45-1-1-1h-3c-.55 0-1 .45-1 1v4c0 .55.45 1 1 1h3c.55 0 1-.45 1-1v-1h-1.5v.5h-2v-3h2v.5ZM8 15v-5c0-.55-.45-1-1-1H4c-.55 0-1 .45-1 1v5h1.5v-1.5h2V15H8Zm-3.5-4.5h2V12h-2v-1.5Zm10 2.5c0-.55-.45-1-1-1 .55 0 1-.45 1-1v-1c0-.55-.45-1-1-1h-4v6h4c.55 0 1-.45 1-1v-1ZM11 11.25v-.75h2v.75h-2Zm0 1.5h2v.75h-2v-.75Z" clip-rule="evenodd"/></svg>