<svg xmlns="http://www.w3.org/2000/svg" fill="none" viewBox="0 0 24 24"><path fill="currentColor" d="M12.549 14.446v6c0 .55.45 1 1 1h6c.55 0 1-.45 1-1v-6c0-.55-.45-1-1-1h-6c-.55 0-1 .45-1 1Zm-9 7h6c.55 0 1-.45 1-1v-6c0-.55-.45-1-1-1h-6c-.55 0-1 .45-1 1v6c0 .55.45 1 1 1Zm-1-17v6c0 .55.45 1 1 1h6c.55 0 1-.45 1-1v-6c0-.55-.45-1-1-1h-6c-.55 0-1 .45-1 1Zm12.95-1.6-4.25 4.24a.996.996 0 0 0 0 1.41l4.25 4.25c.39.39 1.02.39 1.41 0l4.25-4.25a.996.996 0 0 0 0-1.41l-4.24-4.24c-.39-.39-1.03-.39-1.42 0Z"/></svg>